<?xml version="1.0" standalone="no"?>
<!DOCTYPE svg PUBLIC "-//W3C//DTD SVG 20010904//EN"
 "http://www.w3.org/TR/2001/REC-SVG-20010904/DTD/svg10.dtd">
<svg version="1.0" xmlns="http://www.w3.org/2000/svg"
 width="512.000000pt" height="512.000000pt" viewBox="0 0 512.000000 512.000000"
 preserveAspectRatio="xMidYMid meet">
<metadata>
Created by potrace 1.11, written by Peter Selinger 2001-2013
</metadata>
<g transform="translate(0.000000,512.000000) scale(0.100000,-0.100000)"
fill="#000000" stroke="none">
<path d="M0 2560 l0 -2560 2560 0 2560 0 0 709 0 710 -225 0 c-199 -1 -227 -3
-246 -18 -22 -18 -22 -20 -24 -447 -1 -236 -3 -432 -3 -436 -1 -3 -17 -11 -34
-16 -21 -6 -767 -9 -2050 -8 -1950 1 -2018 2 -2031 19 -11 16 -13 359 -13
2053 1 1968 2 2034 20 2047 15 11 355 13 2050 13 1117 -1 2037 -5 2044 -9 7
-5 10 -13 7 -18 -4 -5 -2 -9 3 -9 5 0 8 -169 8 -392 -1 -350 1 -394 16 -412
15 -20 27 -21 247 -21 l231 -1 0 678 0 678 -2560 0 -2560 0 0 -2560z"/>
<path d="M1710 3179 c0 -7 -13 -10 -35 -7 -19 2 -35 0 -35 -5 0 -5 -7 -4 -16
3 -12 11 -15 11 -12 -1 2 -8 -3 -13 -10 -11 -8 1 -11 -2 -7 -8 3 -5 1 -10 -5
-10 -6 0 -9 -4 -5 -9 3 -5 2 -12 -2 -14 -5 -3 -7 -29 -7 -59 1 -29 -3 -59 -8
-65 -7 -9 -5 -15 6 -19 12 -5 14 -10 6 -19 -5 -6 -7 -15 -3 -18 3 -4 0 -14 -8
-24 -8 -9 -9 -14 -3 -10 13 7 27 -17 17 -27 -11 -10 -11 -86 -1 -79 6 3 5 -3
0 -14 -11 -20 -11 -48 1 -59 4 -4 -1 -16 -10 -27 -10 -11 -12 -17 -6 -13 9 5
12 -2 10 -26 -2 -18 1 -39 7 -47 8 -11 8 -13 0 -8 -15 9 -14 -45 1 -55 6 -5 6
-8 -2 -8 -12 0 -12 -17 0 -36 3 -6 3 -14 -1 -18 -11 -12 -8 -175 3 -168 6 3 5
0 -1 -9 -6 -8 -10 -34 -9 -59 2 -25 -2 -51 -7 -57 -7 -9 -5 -15 6 -19 12 -5
14 -10 6 -19 -5 -6 -7 -15 -3 -18 3 -4 0 -13 -6 -21 -10 -11 -9 -16 5 -24 11
-6 13 -12 6 -16 -6 -4 -9 -13 -5 -21 3 -9 -1 -15 -8 -15 -8 0 -6 -5 6 -13 10
-8 15 -19 11 -25 -13 -21 140 -38 196 -21 39 11 69 41 58 59 -5 8 -5 21 1 32
5 10 6 18 2 18 -12 0 -10 114 2 122 6 5 6 8 -2 8 -9 0 -10 7 -3 25 5 13 6 26
2 29 -10 6 -9 57 1 74 5 6 4 12 -2 12 -6 0 -4 18 5 43 16 48 14 47 126 49 53
1 75 5 71 12 -5 8 -3 8 8 0 13 -10 234 -13 268 -3 39 11 53 40 51 103 -3 90
-4 95 -12 90 -4 -3 -8 0 -8 6 0 6 -4 9 -9 6 -5 -3 -14 1 -21 9 -9 11 -17 12
-31 4 -10 -5 -19 -6 -19 -2 0 4 -11 8 -25 8 -14 0 -25 -2 -25 -5 0 -3 -11 -5
-25 -5 -14 0 -25 5 -25 10 0 6 -5 3 -10 -5 -5 -8 -10 -10 -10 -4 0 12 -29 12
-48 0 -6 -4 -12 -3 -12 2 0 5 -7 9 -15 9 -8 0 -15 -3 -15 -7 0 -10 -44 -6 -52
4 -4 6 -13 4 -22 -3 -13 -11 -16 -11 -16 0 0 11 -2 11 -10 -1 -8 -13 -10 -13
-10 -1 0 12 -3 12 -12 3 -8 -8 -15 -9 -25 -1 -10 9 -13 8 -13 -2 0 -8 -6 -6
-16 7 -8 10 -12 13 -8 5 5 -9 3 -12 -4 -7 -7 4 -12 14 -12 22 0 9 -5 12 -12 8
-7 -4 -8 -3 -4 5 4 6 2 18 -4 26 -10 12 -10 15 1 15 9 0 10 3 4 8 -14 10 -17
32 -4 32 8 0 8 4 2 13 -13 15 -7 62 13 103 l15 30 249 1 c291 1 281 -2 285 96
1 34 0 67 -4 72 -3 6 -6 12 -6 15 0 3 -5 13 -11 24 -9 14 -25 19 -68 21 -31 1
-59 -2 -62 -7 -3 -4 -10 -5 -16 -2 -16 10 -219 11 -225 1 -3 -4 -14 0 -26 10
-11 10 -17 12 -13 5 5 -9 -6 -11 -51 -8 -33 2 -64 -2 -72 -8 -11 -8 -13 -8 -7
2 4 7 1 12 -9 12 -10 0 -13 -5 -9 -12 6 -10 4 -10 -7 -2 -17 12 -68 12 -88 0
-9 -6 -12 -5 -7 2 3 6 2 13 -4 17 -5 3 -10 1 -10 -6z"/>
<path d="M2706 3174 c-3 -8 -9 -13 -13 -11 -5 3 -14 -1 -21 -9 -7 -8 -10 -14
-6 -14 3 0 2 -6 -3 -12 -17 -21 -11 -1124 5 -1140 15 -15 481 -20 547 -5 22 4
52 9 68 9 15 1 27 5 27 9 0 4 8 8 18 8 35 1 52 5 52 10 0 4 20 12 44 20 24 7
53 21 64 31 11 10 23 16 26 13 3 -4 6 -1 6 5 0 7 9 12 21 12 11 0 18 4 15 8
-2 4 13 23 34 41 22 19 37 37 34 42 -3 5 2 9 11 9 9 0 14 4 11 9 -3 5 5 20 17
33 13 14 21 30 19 36 -2 7 1 12 7 12 6 0 10 3 9 8 -1 4 4 20 10 35 7 16 12 35
12 43 0 9 5 25 11 36 6 11 12 43 14 70 2 27 5 51 8 54 2 3 1 21 -3 40 -5 21
-4 37 2 40 6 4 5 10 -3 15 -11 7 -11 9 1 9 13 0 13 1 0 10 -12 8 -13 11 -1 19
8 5 9 11 3 15 -6 3 -9 17 -7 31 1 14 -2 25 -6 25 -5 0 -9 11 -9 25 0 14 -4 25
-8 25 -5 0 -9 6 -10 13 -1 28 -12 61 -27 83 -8 13 -14 25 -13 26 4 5 -34 49
-88 103 -45 45 -136 102 -156 97 -5 -1 -8 2 -8 7 0 8 -31 20 -75 28 -11 2 -27
6 -35 9 -27 11 -63 15 -198 17 -73 2 -136 -1 -139 -6 -2 -4 -11 -3 -19 4 -8 6
-14 8 -14 3 0 -5 -5 -2 -10 6 -6 10 -10 11 -10 2 0 -8 -14 -11 -50 -8 -34 3
-50 1 -50 -7 0 -8 -3 -8 -8 -2 -8 12 -62 12 -81 0 -9 -5 -12 -4 -7 3 3 6 2 13
-3 16 -5 3 -12 -1 -15 -10z m389 -228 c46 0 75 -3 75 -10 0 -6 5 -5 12 2 15
15 32 16 23 2 -4 -6 5 -10 20 -10 14 0 24 -4 21 -8 -2 -4 4 -9 15 -10 43 -4
49 -6 49 -14 0 -4 5 -8 11 -8 7 0 22 -11 34 -24 13 -14 25 -23 27 -21 2 3 15
-13 29 -34 13 -22 29 -36 34 -33 6 3 7 2 3 -2 -4 -5 -2 -20 4 -35 11 -28 19
-73 20 -108 0 -13 4 -23 8 -23 8 0 6 -72 -3 -86 -3 -5 -8 -26 -11 -46 -7 -48
-36 -118 -47 -118 -5 0 -9 -7 -9 -16 0 -8 -4 -12 -10 -9 -5 3 -10 0 -10 -7 0
-15 -35 -48 -50 -48 -6 0 -10 -4 -10 -10 0 -5 -7 -10 -15 -10 -8 0 -15 -5 -15
-12 0 -6 -3 -8 -7 -5 -3 4 -11 2 -18 -3 -6 -5 -32 -12 -56 -14 -24 -3 -44 -5
-44 -6 0 -1 -18 -3 -40 -5 -94 -9 -145 -11 -145 -4 0 4 -9 5 -20 2 -11 -3 -20
0 -20 6 0 6 -6 11 -14 11 -8 0 -17 7 -20 16 -4 10 -2 13 7 8 9 -6 9 -4 1 7 -8
10 -12 99 -11 295 0 154 -2 285 -4 290 -7 13 16 76 24 68 6 -6 11 8 9 27 -1 3
15 4 34 3 21 -2 34 1 35 9 0 7 2 8 5 2 2 -6 38 -10 79 -9z"/>
<path d="M4124 3182 c3 -6 -1 -12 -9 -16 -8 -3 -16 -2 -19 2 -8 13 -57 6 -67
-9 -7 -12 -9 -12 -9 1 -1 12 -3 11 -11 -3 -6 -10 -15 -14 -22 -10 -7 4 -6 0 2
-10 11 -13 11 -17 1 -17 -8 0 -10 -3 -7 -7 4 -3 2 -12 -4 -19 -7 -8 -7 -14 1
-19 5 -3 10 -11 10 -16 0 -6 -4 -7 -10 -4 -6 3 -7 -1 -4 -10 10 -26 10 -109 1
-122 -6 -8 -5 -13 2 -13 13 0 10 -22 -4 -32 -7 -5 -6 -8 1 -8 11 0 11 -70 0
-88 -3 -6 -1 -12 5 -14 9 -3 9 -10 -1 -27 -7 -15 -8 -21 -1 -17 15 10 14 -7
-1 -22 -7 -7 -8 -12 -2 -12 11 0 12 -60 1 -77 -4 -6 -3 -14 3 -18 15 -9 12
-28 -2 -19 -10 5 -10 4 -1 -6 9 -9 9 -19 2 -33 -8 -14 -8 -18 0 -13 6 4 11 4
11 1 0 -4 -5 -16 -11 -27 -8 -16 -8 -19 1 -13 9 6 9 3 1 -13 -8 -15 -8 -21 1
-24 8 -3 8 -9 -1 -25 -7 -14 -8 -24 -1 -28 5 -3 10 -11 10 -16 0 -6 -4 -7 -10
-4 -6 4 -7 -2 -2 -17 9 -28 9 -49 -1 -65 -4 -6 -3 -14 3 -18 5 -3 10 -11 10
-16 0 -6 -4 -7 -10 -4 -6 4 -7 -2 -1 -18 6 -16 6 -28 -2 -36 -8 -8 -8 -11 1
-11 14 0 12 -21 -3 -32 -6 -5 -6 -8 2 -8 12 0 12 -18 -1 -39 -5 -8 -4 -16 4
-21 10 -6 9 -9 -1 -13 -8 -3 -9 -6 -3 -6 7 -1 10 -14 8 -31 -5 -45 30 -63 123
-65 41 -1 77 3 79 7 3 5 9 6 14 3 5 -3 11 -1 15 5 4 6 11 7 17 4 7 -5 9 -1 5
9 -4 10 -2 17 5 17 7 0 7 4 -1 13 -6 8 -8 17 -4 21 12 11 11 56 -1 56 -8 0 -8
3 -1 8 14 9 13 75 0 84 -7 5 -6 8 0 8 12 0 13 49 2 67 -4 6 -3 14 2 17 8 5 8
27 1 46 -1 3 -1 10 0 15 8 34 5 95 -4 95 -7 0 -7 3 -1 8 13 9 15 52 2 52 -6 0
-6 5 -1 13 5 6 9 31 8 55 0 23 4 42 9 42 5 0 4 6 -2 14 -14 17 -5 24 26 21 12
-1 20 2 17 7 -3 4 -3 8 0 8 2 0 14 -15 25 -33 11 -19 32 -47 46 -63 41 -46 45
-53 45 -64 0 -6 3 -9 8 -7 12 8 32 -19 32 -44 0 -5 5 -7 10 -4 6 3 10 1 10 -5
0 -6 6 -18 13 -25 29 -33 37 -45 32 -45 -3 0 5 -11 19 -25 13 -13 27 -34 31
-45 3 -11 14 -20 22 -20 9 0 14 -3 10 -6 -5 -6 11 -29 46 -66 10 -10 15 -24
11 -30 -4 -6 -3 -8 3 -5 6 4 15 -5 21 -18 7 -14 16 -25 22 -25 5 0 10 -5 10
-10 0 -6 14 -24 30 -42 17 -17 30 -36 31 -42 0 -6 16 -24 35 -40 33 -27 41
-29 132 -31 53 -1 102 1 107 4 6 3 24 6 40 6 l30 0 1 120 c1 75 -3 125 -10
134 -8 12 -8 13 2 7 10 -6 12 1 10 29 -1 20 -6 39 -10 41 -4 3 -8 11 -8 17 0
7 4 6 11 -3 7 -11 9 -7 7 20 -1 19 -7 41 -12 49 -8 11 -8 13 2 7 9 -5 12 2 12
26 0 19 -6 40 -12 47 -11 11 -10 12 0 6 11 -5 13 1 11 26 -2 19 -8 40 -13 48
-9 11 -8 13 2 7 11 -6 13 -1 11 25 -2 19 -8 40 -13 48 -9 11 -8 13 2 7 11 -6
13 -1 11 25 -2 19 -8 40 -13 48 -8 11 -8 13 2 7 9 -5 12 2 12 28 0 19 -4 38
-10 41 -5 3 -10 12 -10 18 0 7 4 6 11 -3 7 -11 9 -7 7 20 -1 19 -7 41 -12 49
-8 11 -8 13 2 7 9 -5 12 2 12 26 0 19 -6 40 -12 47 -7 8 -8 11 -2 8 8 -5 11
25 12 101 0 66 -3 99 -8 87 -7 -15 -9 -16 -9 -4 -1 9 -11 19 -23 22 -22 6 -22
6 -4 -8 11 -8 15 -15 9 -15 -7 0 -19 7 -27 16 -12 12 -16 12 -16 2 0 -8 -3 -9
-8 -3 -4 6 -44 10 -89 10 -49 0 -81 -4 -80 -10 1 -5 -4 -9 -10 -7 -12 2 -17
-10 -14 -30 0 -5 -2 -8 -7 -8 -10 0 -9 -232 2 -249 6 -9 5 -12 -2 -7 -13 8
-10 -92 3 -114 5 -8 4 -11 -2 -7 -7 4 -10 -26 -8 -91 1 -53 -2 -105 -7 -116
-8 -14 -7 -16 2 -11 8 5 11 3 8 -6 -3 -8 -10 -13 -16 -12 -6 2 -9 -3 -6 -11 3
-8 0 -17 -7 -22 -8 -5 -10 -3 -4 7 8 12 6 12 -8 0 -15 -12 -17 -11 -17 3 0 10
-4 15 -9 11 -5 -3 -12 4 -16 15 -3 11 -11 20 -16 20 -6 0 -7 5 -4 10 3 6 -1
10 -9 10 -8 0 -18 10 -21 21 -4 12 -20 35 -36 51 -16 17 -31 39 -34 49 -4 11
-11 19 -16 19 -5 0 -23 21 -39 47 -17 26 -37 51 -45 56 -8 4 -15 15 -15 22 0
8 -5 15 -11 15 -5 0 -7 5 -4 10 3 6 2 10 -4 10 -6 0 -21 16 -34 35 -13 19 -27
32 -32 27 -5 -4 -5 -2 -2 4 4 7 -5 23 -20 38 -14 14 -22 26 -18 26 5 0 -1 8
-11 18 -11 9 -31 33 -44 52 -13 19 -32 42 -42 51 -10 9 -15 19 -11 23 3 3 -1
6 -11 6 -9 0 -15 4 -12 9 6 9 -43 36 -61 32 -7 -1 -13 4 -13 11 0 9 -3 9 -10
-2 -8 -13 -13 -13 -31 -2 -11 8 -18 9 -15 4z m978 -144 c-9 -9 -15 -9 -24 1
-11 10 -10 11 5 6 10 -5 17 -2 17 6 0 7 3 9 7 6 4 -4 1 -13 -5 -19z m5 -120
c0 -13 -1 -17 -4 -10 -3 6 -10 9 -16 5 -7 -4 -6 1 2 10 17 21 17 21 18 -5z
m-1 -80 c4 -7 4 -10 -1 -6 -4 4 -15 2 -24 -5 -14 -11 -14 -10 -2 6 16 20 18
21 27 5z m1 -80 c0 -13 -1 -17 -4 -10 -3 6 -10 9 -16 5 -7 -4 -6 1 2 10 17 21
17 21 18 -5z m2 -91 c0 -8 -2 -8 -6 1 -4 10 -8 10 -21 0 -15 -12 -16 -11 -3 4
14 19 32 15 30 -5z m0 -80 c0 -9 -2 -8 -6 1 -2 6 -10 9 -15 6 -7 -4 -8 -2 -4
5 9 13 26 5 25 -12z m0 -80 c0 -9 -2 -8 -6 1 -2 6 -10 9 -15 6 -7 -4 -8 -2 -4
5 9 13 26 5 25 -12z m-2 -69 c0 -13 -1 -17 -4 -10 -3 6 -10 9 -16 5 -7 -4 -6
1 2 10 17 21 17 21 18 -5z m2 -171 c0 -9 -2 -8 -6 1 -2 6 -10 9 -15 6 -7 -4
-8 -2 -4 5 9 13 26 5 25 -12z m-1 -99 c-2 -6 -12 -12 -21 -14 -9 -1 -15 2 -11
7 3 5 10 7 15 4 5 -4 9 -1 9 4 0 6 3 11 6 11 3 0 4 -5 2 -12z m1 -61 c0 -9 -2
-8 -6 1 -2 6 -10 9 -15 6 -7 -4 -8 -2 -4 5 9 13 26 5 25 -12z"/>
</g>
</svg>
